<svg width="24" height="22" viewBox="0 0 24 22" fill="none" xmlns="http://www.w3.org/2000/svg">
<path d="M17.8898 19.8498H6.1098C5.79211 19.8501 5.48351 19.7438 5.23333 19.5481C4.98316 19.3523 4.80586 19.0782 4.7298 18.7698L2.07979 8.1598C2.05394 8.05651 2.05198 7.94868 2.07408 7.84452C2.09618 7.74036 2.14175 7.64261 2.20732 7.55872C2.27289 7.47483 2.35673 7.407 2.45247 7.3604C2.54821 7.3138 2.65332 7.28965 2.75979 7.2898H21.2398C21.3463 7.28965 21.4514 7.3138 21.5471 7.3604C21.6429 7.407 21.7267 7.47483 21.7923 7.55872C21.8578 7.64261 21.9034 7.74036 21.9255 7.84452C21.9476 7.94868 21.9457 8.05651 21.9198 8.1598L19.2698 18.7698C19.1937 19.0782 19.0164 19.3523 18.7663 19.5481C18.5161 19.7438 18.2075 19.8501 17.8898 19.8498V19.8498Z" stroke="#151515" stroke-width="2.5" stroke-linecap="round" stroke-linejoin="round"/>
<path d="M9.79972 2.1499L6.89972 7.2899" stroke="#151515" stroke-width="2.5" stroke-linecap="round" stroke-linejoin="round"/>
<path d="M13.8799 2.1499L16.7899 7.2899" stroke="#151515" stroke-width="2.5" stroke-linecap="round" stroke-linejoin="round"/>
</svg>
